<?xml version="1.0" encoding="UTF-8"?>
<svg id="Capa_1" xmlns="http://www.w3.org/2000/svg" version="1.1" viewBox="0 0 512 512">
  <!-- Generator: Adobe Illustrator 30.1.0, SVG Export Plug-In . SVG Version: 2.1.1 Build 136)  -->
  <defs>
    <style>
      .st0 {
        fill: #fff;
      }
    </style>
  </defs>
  <path class="st0" d="M487.7,254.1l-48.1-21.8-44.8-94.9c-2.3-4.8-5.3-9.2-9-13h25.7c23.4,0,42.5-19.1,42.5-42.5s-4.4-22-12.4-30c-8-8-18.7-12.5-30-12.5h-236.9c-11.8,0-23.6,2.8-34,8.2-3.7,1.9-5.2,6.4-3.3,10.1,1.9,3.7,6.4,5.2,10.1,3.3,8.5-4.3,17.6-6.5,27.2-6.5h236.9c7.3,0,14.2,2.9,19.4,8.1,5.2,5.2,8,12.1,8,19.4,0,15.1-12.3,27.5-27.5,27.5H114.9c.9-11.4,5-22.2,12-31.3,2.5-3.3,1.9-8-1.4-10.5-3.3-2.5-8-1.9-10.5,1.4-9,11.8-14.2,25.7-15.1,40.4h-45.2C24.5,109.4,0,134,0,164.1v239.3C0,420.7,13.5,435.2,30.8,436.4l12.3.9c10,20.8,31.2,35.2,55.8,35.2s44.2-13.3,54.6-32.8h204.6c10.4,19.5,31,32.8,54.6,32.8s45.1-13.9,55.3-34.2l12.4-.8c17.7-1.1,31.5-15.8,31.5-33.5v-112.3c0-16.2-9.5-31-24.3-37.7h0ZM497,350.7h-17.4c-2.4,0-4.4-2-4.4-4.4v-37.4c0-2.4,2-4.4,4.4-4.4h17.4v46.2ZM98.9,457.5c-25.8,0-46.9-21-46.9-46.9s21-46.9,46.9-46.9,46.9,21,46.9,46.9-21,46.9-46.9,46.9ZM412.8,457.5c-25.8,0-46.9-21-46.9-46.9s21-46.9,46.9-46.9,46.9,21,46.9,46.9-21,46.9-46.9,46.9ZM479.5,422.6l-6.2.4c.8-4,1.2-8.1,1.2-12.3,0-34.1-27.8-61.9-61.9-61.9s-61.9,27.8-61.9,61.9.6,9.5,1.6,14h-193.4c1.1-4.5,1.6-9.2,1.6-14,0-34.1-27.8-61.9-61.9-61.9s-61.9,27.8-61.9,61.9.4,7.6,1,11.2l-6.3-.4c-9.4-.7-16.8-8.6-16.8-18v-239.3c0-21.9,17.8-39.7,39.7-39.7h296c13,0,25,7.6,30.6,19.4l46,97.4c.8,1.6,2.1,2.9,3.7,3.6l50.6,22.9c8.7,4,14.6,12.4,15.4,21.8h-17.3c-10.7,0-19.4,8.7-19.4,19.4v37.4c0,10.7,8.7,19.4,19.4,19.4h17.4v38.3c0,9.8-7.7,18-17.5,18.6h0Z"/>
  <path class="st0" d="M101.9,139.4h-47.2c-13.6,0-24.7,11.1-24.7,24.7v57.8c0,13,10.6,23.6,23.6,23.6h48.3c12.7,0,23-10.3,23-23v-60c0-12.7-10.3-23-23-23h0ZM109.9,222.4c0,4.4-3.6,8-8,8h-48.3c-4.7,0-8.6-3.9-8.6-8.6v-57.8c0-5.3,4.3-9.7,9.7-9.7h47.2c4.4,0,8,3.6,8,8v60h0Z"/>
  <path class="st0" d="M367.6,150.2c-3.1-6.5-9.8-10.8-17-10.8h-24.7c-9.3,0-16.9,7.6-16.9,16.9v72.2c0,9.3,7.6,16.9,16.9,16.9h60.1c5.8,0,11.1-2.9,14.3-7.8,3.1-4.9,3.5-11,1-16.2l-33.7-71.2ZM387.6,229.6c-.3.4-.7.9-1.6.9h-60.1c-1.1,0-1.9-.9-1.9-1.9v-72.2c0-1.1.9-1.9,1.9-1.9h24.7c1.4,0,2.8.9,3.4,2.2l33.6,71.2c.4.8.1,1.4-.1,1.8Z"/>
  <path class="st0" d="M98.9,377.5c-18.3,0-33.1,14.9-33.1,33.1s14.9,33.1,33.1,33.1,33.1-14.9,33.1-33.1-14.9-33.1-33.1-33.1ZM98.9,428.8c-10,0-18.1-8.1-18.1-18.1s8.1-18.1,18.1-18.1,18.1,8.1,18.1,18.1-8.1,18.1-18.1,18.1Z"/>
  <path class="st0" d="M412.8,377.5c-18.3,0-33.1,14.9-33.1,33.1s14.9,33.1,33.1,33.1,33.1-14.9,33.1-33.1-14.9-33.1-33.1-33.1ZM412.8,428.8c-10,0-18.1-8.1-18.1-18.1s8.1-18.1,18.1-18.1,18.1,8.1,18.1,18.1-8.1,18.1-18.1,18.1Z"/>
  <path class="st0" d="M254.2,141.9h-74.4c-17,0-30.8,13.8-30.8,30.8v173.6c0,17,13.8,30.8,30.8,30.8h74.4c17,0,30.8-13.8,30.8-30.8v-22c0-4.1-3.4-7.5-7.5-7.5s-7.5,3.4-7.5,7.5v22c0,8.7-7.1,15.8-15.8,15.8h-74.4c-8.7,0-15.8-7.1-15.8-15.8v-173.6c0-8.7,7.1-15.8,15.8-15.8h74.4c8.7,0,15.8,7.1,15.8,15.8v121.6c0,4.1,3.4,7.5,7.5,7.5s7.5-3.4,7.5-7.5v-121.6c0-17-13.8-30.8-30.8-30.8Z"/>
  <path class="st0" d="M255,217.3v-24.4c0-11.6-9.4-21.1-21.1-21.1h-33.9c-11.6,0-21.1,9.4-21.1,21.1v24.4c0,11.6,9.4,21.1,21.1,21.1h33.9c11.6,0,21.1-9.4,21.1-21.1ZM193.9,217.3v-24.4c0-3.3,2.7-6.1,6.1-6.1h33.9c3.3,0,6.1,2.7,6.1,6.1v24.4c0,3.3-2.7,6.1-6.1,6.1h-33.9c-3.3,0-6.1-2.7-6.1-6.1Z"/>
  <path class="st0" d="M49.4,274.9c-11.8,0-21.5,9.6-21.5,21.5v30.6c0,11.8,9.6,21.5,21.5,21.5s21.5-9.6,21.5-21.5v-30.6c0-11.8-9.6-21.5-21.5-21.5ZM55.8,327c0,3.6-2.9,6.5-6.5,6.5s-6.5-2.9-6.5-6.5v-30.6c0-3.6,2.9-6.5,6.5-6.5s6.5,2.9,6.5,6.5v30.6Z"/>
  <path class="st0" d="M176.4,253.6c-4.1,0-7.5,3.4-7.5,7.5s3.4,7.5,7.5,7.5h21.3c4.1,0,7.5-3.4,7.5-7.5s-3.4-7.5-7.5-7.5h-21.3Z"/>
  <path class="st0" d="M337.9,253.6h-21.3c-4.1,0-7.5,3.4-7.5,7.5s3.4,7.5,7.5,7.5h21.3c4.1,0,7.5-3.4,7.5-7.5s-3.4-7.5-7.5-7.5Z"/>
</svg>