<svg width="32" height="33" viewBox="0 0 32 33" fill="none" xmlns="http://www.w3.org/2000/svg">
<g clip-path="url(#clip0_41_11)">
<path fill-rule="evenodd" clip-rule="evenodd" d="M9.56981 16.5099C9.38338 15.7966 9.19695 14.8986 8.79745 13.5575C8.47976 12.4979 8.14685 11.9234 7.90335 11.2119C7.60848 10.3463 7.32694 9.84029 6.95978 8.96521C6.69535 8.33933 6.26733 6.97154 6.09041 6.22582C5.86403 5.25752 6.15318 4.46804 6.55458 3.93158C7.03588 3.28668 8.38464 2.99943 9.13607 3.26385C9.84185 3.51116 10.5514 4.23786 10.8786 4.76291C11.4265 5.63799 11.5578 5.9652 12.2426 7.69634C12.9902 9.58347 13.3155 11.3451 13.405 11.9405L13.5667 12.8003C13.5648 12.7243 13.4849 10.6659 13.4829 10.5898C13.4164 8.63229 13.3688 7.12183 13.4107 4.9988C13.4145 4.7591 13.5324 3.88212 13.5705 3.63862C13.7188 2.68744 14.1507 2.11674 14.8507 1.77621C15.6345 1.39384 16.6123 1.36721 17.5159 1.74387C18.3206 2.07298 18.7068 2.79017 18.8229 3.68808C18.8495 3.89544 19.0017 5.5657 18.9998 5.79398C18.975 7.7439 19.0112 8.91575 19.0283 9.9297C19.0359 10.3691 19.034 13.021 19.0606 12.7243C19.1767 11.4763 19.2395 6.65765 19.7151 5.22518C19.989 4.40146 20.4855 3.80602 21.2255 3.45789C22.0454 3.07172 23.3428 3.32473 23.8964 3.92017C24.4386 4.50038 24.7449 5.23659 24.8134 6.11358C24.8742 6.88403 24.7772 7.81999 24.7753 8.48201C24.7753 10.1313 24.7354 11.0007 24.7049 12.5169C24.703 12.5892 24.6764 13.0838 24.7487 12.8631C24.9275 12.3305 25.1063 11.8321 25.2547 11.4459C25.3479 11.2081 25.7132 10.2778 25.9377 9.81175C26.1545 9.3666 26.3391 9.10979 26.7271 8.50293C27.1076 7.9075 27.5166 7.65068 27.9979 7.43571C29.0252 6.98866 30.1076 7.64878 30.4729 8.56C30.6365 8.96901 30.49 9.91638 30.4196 10.6621C30.3036 11.8929 29.9364 13.1466 29.75 13.7972C29.5065 14.6475 29.2287 16.1466 29.1032 16.8428C28.9662 17.5924 28.658 19.4719 28.4202 20.3051C28.2566 20.8777 27.7145 22.1656 27.1799 22.938C27.1799 22.938 25.1368 25.3159 24.9123 26.3851C24.6897 27.4561 24.7639 27.4637 24.7201 28.2208C24.6745 28.9799 24.9503 29.9767 24.9503 29.9767C24.9503 29.9767 23.4246 30.1745 22.6028 30.0414C21.859 29.9234 20.9383 28.4415 20.7005 27.9906C20.3733 27.3667 19.6751 27.4865 19.4031 27.9469C18.975 28.6755 18.0543 29.9824 17.4037 30.0642C16.1329 30.224 13.4963 30.1213 11.4322 30.1022C11.4322 30.1022 11.7841 28.179 11.0004 27.5189C10.4202 27.0242 9.42143 26.0274 8.82409 25.5024L7.24133 23.7503C6.70106 23.0654 6.04475 21.671 4.8767 19.9741C4.21469 19.0153 2.92299 17.9101 2.43408 16.9703C2.00986 16.1618 1.8044 15.1555 2.07264 14.4497C2.50067 13.3197 3.35672 12.7433 4.66364 12.8669C5.65096 12.9621 6.27684 13.2588 7.01875 13.8885C7.44678 14.2499 8.1088 14.9044 8.44552 15.3115C8.7556 15.6824 8.8317 15.8365 9.16271 16.2798C9.60025 16.8638 9.73722 17.1529 9.56981 16.5099Z" fill="white"/>
<path fill-rule="evenodd" clip-rule="evenodd" d="M9.56981 16.5099C9.38338 15.7966 9.19695 14.8986 8.79745 13.5575C8.47976 12.4979 8.14685 11.9234 7.90335 11.2119C7.60848 10.3463 7.32694 9.84029 6.95978 8.96521C6.69535 8.33933 6.26733 6.97154 6.09041 6.22582C5.86403 5.25752 6.15318 4.46804 6.55458 3.93158C7.03588 3.28668 8.38464 2.99943 9.13607 3.26385C9.84185 3.51116 10.5514 4.23786 10.8786 4.76291C11.4265 5.63799 11.5578 5.9652 12.2426 7.69634C12.9902 9.58347 13.3155 11.3451 13.405 11.9405L13.5667 12.8003C13.5648 12.7243 13.4849 10.6659 13.4829 10.5898C13.4164 8.63229 13.3688 7.12183 13.4107 4.9988C13.4145 4.7591 13.5324 3.88212 13.5705 3.63862C13.7188 2.68744 14.1507 2.11674 14.8507 1.77621C15.6345 1.39384 16.6123 1.36721 17.5159 1.74387C18.3206 2.07298 18.7068 2.79017 18.8229 3.68808C18.8495 3.89544 19.0017 5.5657 18.9998 5.79398C18.975 7.7439 19.0112 8.91575 19.0283 9.9297C19.0359 10.3691 19.034 13.021 19.0606 12.7243C19.1767 11.4763 19.2395 6.65765 19.7151 5.22518C19.989 4.40146 20.4855 3.80602 21.2255 3.45789C22.0454 3.07172 23.3428 3.32473 23.8964 3.92017C24.4386 4.50038 24.7449 5.23659 24.8134 6.11358C24.8742 6.88403 24.7772 7.81999 24.7753 8.48201C24.7753 10.1313 24.7354 11.0007 24.7049 12.5169C24.703 12.5892 24.6764 13.0838 24.7487 12.8631C24.9275 12.3305 25.1063 11.8321 25.2547 11.4459C25.3479 11.2081 25.7132 10.2778 25.9377 9.81175C26.1545 9.3666 26.3391 9.10979 26.7271 8.50293C27.1076 7.9075 27.5166 7.65068 27.9979 7.43571C29.0252 6.98866 30.1076 7.64878 30.4729 8.56C30.6365 8.96901 30.49 9.91638 30.4196 10.6621C30.3036 11.8929 29.9364 13.1466 29.75 13.7972C29.5065 14.6475 29.2287 16.1466 29.1032 16.8428C28.9662 17.5924 28.658 19.4719 28.4202 20.3051C28.2566 20.8777 27.7145 22.1656 27.1799 22.938C27.1799 22.938 25.1368 25.3159 24.9123 26.3851C24.6897 27.4561 24.7639 27.4637 24.7201 28.2208C24.6745 28.9799 24.9503 29.9767 24.9503 29.9767C24.9503 29.9767 23.4246 30.1745 22.6028 30.0414C21.859 29.9234 20.9383 28.4415 20.7005 27.9906C20.3733 27.3667 19.6751 27.4865 19.4031 27.9469C18.975 28.6755 18.0543 29.9824 17.4037 30.0642C16.1329 30.224 13.4963 30.1213 11.4322 30.1022C11.4322 30.1022 11.7841 28.179 11.0004 27.5189C10.4202 27.0242 9.42143 26.0274 8.82409 25.5024L7.24133 23.7503C6.70106 23.0654 6.04475 21.671 4.8767 19.9741C4.21469 19.0153 2.92299 17.9101 2.43408 16.9703C2.00986 16.1618 1.8044 15.1555 2.07264 14.4497C2.50067 13.3197 3.35672 12.7433 4.66364 12.8669C5.65096 12.9621 6.27684 13.2588 7.01875 13.8885C7.44678 14.2499 8.1088 14.9044 8.44552 15.3115C8.7556 15.6824 8.8317 15.8365 9.16271 16.2798C9.60025 16.8638 9.73722 17.1529 9.56981 16.5099Z" stroke="black" stroke-width="1.42676" stroke-linecap="round" stroke-linejoin="round"/>
<path d="M22.9053 24.4241V17.8439" stroke="black" stroke-width="1.42676" stroke-linecap="round"/>
<path d="M19.0724 24.4464L19.042 17.8395" stroke="black" stroke-width="1.42676" stroke-linecap="round"/>
<path d="M15.2744 17.8996L15.3144 24.4171" stroke="black" stroke-width="1.42676" stroke-linecap="round"/>
</g>
<defs>
<clipPath id="clip0_41_11">
<rect width="30.4376" height="32.34" fill="white" transform="translate(0.902344 0.198792)"/>
</clipPath>
</defs>
</svg>
