<?xml version="1.0" encoding="UTF-8"?>
<svg id="Layer_1" data-name="Layer 1" xmlns="http://www.w3.org/2000/svg" viewBox="0 0 512 512">
  <defs>
    <style>
      .cls-1 {
        fill: #fff;
      }
    </style>
  </defs>
  <path class="cls-1" d="M162.47,173.24h-43.5c-16.37,0-29.69,13.32-29.69,29.69v32.62c0,16.37,13.32,29.69,29.69,29.69h43.5c16.37,0,29.69-13.32,29.69-29.69v-32.62c0-16.37-13.32-29.69-29.69-29.69ZM165.41,235.55c0,1.62-1.32,2.94-2.94,2.94h-43.5c-1.62,0-2.94-1.32-2.94-2.94v-32.62c0-1.62,1.32-2.94,2.94-2.94h43.5c1.62,0,2.94,1.32,2.94,2.94v32.62Z"/>
  <path class="cls-1" d="M492.19,274.51l.12-.2-52.75-31.65-17.78-42.67h28.88c7.38,0,13.38-6,13.38-13.38v-32.62c0-19.37-15.76-35.12-35.12-35.12H113.54c-43.35,0-78.62,35.27-78.62,78.62v141.38c0,19.37,15.76,35.12,35.12,35.12h20.83c6.11,25.33,29.04,43.5,55.29,43.5,15.01,0,29.17-5.79,39.86-16.32,7.82-7.69,13.14-17.28,15.54-27.74h139.33c2.4,10.46,7.71,20.05,15.54,27.74,10.7,10.52,24.86,16.32,39.86,16.32,26.26,0,49.18-18.17,55.29-43.5h31.71c7.38,0,13.38-6,13.38-13.38v-76.12c0-3.83-1.67-7.47-4.47-9.98ZM146.16,390.74c-16.61,0-30.12-13.51-30.12-30.12s13.51-30.12,30.12-30.12,30.12,13.51,30.12,30.12-13.51,30.12-30.12,30.12ZM396.29,390.74c-16.61,0-30.12-13.51-30.12-30.12s13.51-30.12,30.12-30.12,30.12,13.51,30.12,30.12-13.51,30.12-30.12,30.12ZM469.91,347.24h-18.33c-6.11-25.33-29.04-43.5-55.29-43.5-15.01,0-29.17,5.79-39.86,16.32-6.85,6.73-11.77,14.92-14.51,23.86h-141.38c-2.73-8.95-7.66-17.13-14.51-23.86-10.7-10.52-24.86-16.32-39.86-16.32-26.26,0-49.18,18.17-55.29,43.5h-20.83c-4.62,0-8.38-3.76-8.38-8.38v-141.38c0-28.6,23.27-51.88,51.88-51.88h315.38c4.62,0,8.38,3.76,8.38,8.38v19.25h-84.5c-7.38,0-13.38,6-13.38,13.38v65.25c0,7.38,6,13.38,13.38,13.38h72.42l44.71,26.82v55.18ZM408.85,238.49h-42.69v-38.5h26.65l16.04,38.5Z"/>
</svg>