<?xml version="1.0" encoding="UTF-8"?>
<svg id="Layer_2" data-name="Layer 2" xmlns="http://www.w3.org/2000/svg" viewBox="0 0 117.5 117.5">
  <defs>
    <style>
      .cls-1 {
        fill: #fff;
      }
    </style>
  </defs>
  <g id="Layer_1-2" data-name="Layer 1">
    <g>
      <path class="cls-1" d="M116.34,29.1l-28.5-10.16c-.38-.14-.79-.14-1.17,0l-9.89,3.52c.22-1.35.34-2.72.34-4.1,0-10.13-8.24-18.37-18.37-18.37s-18.37,8.24-18.37,18.37c0,1.38.13,2.75.34,4.1l-9.89-3.52c-.38-.14-.79-.14-1.17,0L1.16,29.1c-.7.25-1.16.91-1.16,1.65v85c0,.57.28,1.1.74,1.43.47.33,1.06.41,1.6.22l27.91-9.95,27.91,9.95c.38.14.79.14,1.17,0l27.91-9.95,27.91,9.95c.19.07.39.1.59.1.36,0,.71-.11,1.01-.32.46-.33.74-.86.74-1.43V30.75c0-.74-.47-1.4-1.16-1.65ZM97.18,29.81c.06.5-.16.99-.57,1.27l-7.61,5.3v-13.32l7.72,2.75.47,3.99ZM97.12,102.05l3.55,2.98c.52.44.87,1.06.97,1.73l.32,2.22-12.96-4.62v-28.99l13.58,10.53c1.03.8,1.37,2.24.8,3.41l-.72,1.5c-.15.3-.42.54-.74.64l-1.78.58c-2.6.84-4.35,3.24-4.35,5.98v1.18c0,1.11.49,2.16,1.34,2.87ZM74.41,99.14l-.76-1.16c-.81-1.24-.71-2.82.23-3.96l3.56-4.23c1.38-1.65,1.83-3.86,1.19-5.91l-.66-2.1c-.41-1.31-1.37-2.38-2.63-2.94l-3.54-1.55c-.88-.39-1.42-1.29-1.34-2.25l.22-2.62c.03-.35.2-.66.47-.87.27-.22.61-.31.96-.26l12.29,1.84c.37.06.73.14,1.09.24v30.98l-13.75,4.9,2.94-6.53c.53-1.17.42-2.52-.28-3.59ZM84.93,69.68l-12.29-1.84c-1.29-.19-2.62.16-3.65.97-1.03.81-1.68,2.02-1.79,3.32l-.22,2.62c-.21,2.46,1.17,4.77,3.42,5.76l3.54,1.55c.33.15.58.43.69.77l.66,2.1c.28.91.09,1.89-.52,2.62l-3.56,4.23c-1.95,2.32-2.15,5.59-.48,8.12l.76,1.16c.05.07.05.16.02.24l-4.31,9.59-6.68,2.38v-55.01l3.46,2.35c1.64,1.11,3.76,1.12,5.41.03l3.5-2.31c1.78-1.18,2.58-3.35,1.99-5.41l-.31-1.06c-.13-.44-.03-.9.26-1.25l4.88-5.83c.65-.78,1.51-1.35,2.47-1.64l3.32-1.03v27.69c-.19-.04-.38-.09-.57-.12ZM14.91,34.69l1.66-7.37,11.93-4.25v17.03c-.18.04-.36.08-.54.13l-5.11,1.62c-.51.16-.91-.01-1.11-.13-.2-.12-.54-.39-.64-.92l-.09-.47c-.42-2.31-2.43-3.98-4.78-3.98-.57,0-.91-.32-1.06-.51-.15-.19-.39-.59-.26-1.15ZM32,45.46l4.29,4.14c1.46,1.41,1.98,3.56,1.32,5.48l-1.15,3.34c-.55,1.6-.24,3.33.82,4.64l4.71,5.81c.93,1.14,2.3,1.8,3.77,1.8,0,0,.01,0,.02,0,1.48,0,2.86-.67,3.78-1.83l2.29-2.87c.89-1.12,1.25-2.56.97-3.96l-.65-3.31c-.1-.52.12-.91.25-1.09.14-.18.45-.49.98-.53l3.57-.26v56.43l-25-8.91v-58.9ZM85.5,23.07v15.38l-4.35,1.34c-1.61.5-3.04,1.45-4.12,2.74l-4.88,5.83c-1.04,1.24-1.39,2.92-.94,4.47l.31,1.06c.17.58-.06,1.18-.56,1.51l-3.5,2.31c-.46.3-1.06.3-1.51,0l-5.3-3.6s-.08-.04-.13-.07v-4.19c2.47-2.36,11.89-11.9,15.34-23.34l9.66-3.44ZM58.75,3.5c8.2,0,14.87,6.67,14.87,14.87,0,12.37-11.17,24.59-14.87,28.29-3.7-3.71-14.87-15.93-14.87-28.29,0-8.2,6.67-14.87,14.87-14.87ZM57,49.86v3.47l-3.82.27c-1.39.1-2.67.79-3.51,1.89s-1.18,2.52-.91,3.88l.65,3.31c.08.39-.02.8-.27,1.11l-2.29,2.87c-.35.44-.81.51-1.06.51-.21-.01-.7-.06-1.06-.5l-4.71-5.81c-.3-.37-.38-.85-.23-1.3l1.15-3.34c1.1-3.2.23-6.79-2.2-9.14l-5.92-5.71c-.25-.24-.52-.43-.8-.61v-17.68l9.66,3.44c3.45,11.44,12.87,20.98,15.34,23.34ZM12.67,28.72l-1.17,5.21c-.33,1.45.02,2.94.95,4.1.93,1.16,2.31,1.82,3.8,1.82.66,0,1.22.47,1.34,1.12l.09.47c.25,1.37,1.08,2.57,2.28,3.29,1.19.72,2.64.89,3.97.47l4.59-1.45v60.63l-13.07,4.66h0c.71-1.77.51-3.76-.55-5.35l-2.86-4.3c-.08-.11-.05-.26.06-.34l1.4-.99c1.3-.91,2.13-2.34,2.3-3.92l.54-5.07c.07-.62.41-1.16.93-1.49l2.78-1.74c2.44-1.52,3.3-4.71,1.96-7.25l-.73-1.39c-.95-1.8-2.63-3.06-4.62-3.46l-2.06-.42c-.63-.13-1.17-.56-1.43-1.15l-1.1-2.44c-.54-1.19-1.4-2.19-2.49-2.9l-6.06-3.91v-30.92l9.17-3.27ZM3.5,67.07l4.16,2.68c.53.34.94.82,1.2,1.4l1.1,2.44c.73,1.61,2.19,2.79,3.93,3.14l2.06.42c.96.2,1.77.8,2.23,1.67l.73,1.39c.49.93.18,2.09-.71,2.65l-2.78,1.74c-1.45.9-2.38,2.4-2.56,4.09l-.54,5.07c-.06.58-.37,1.1-.84,1.43l-1.4.99c-1.67,1.18-2.09,3.44-.96,5.14l2.86,4.3c.41.62.49,1.4.21,2.09l-1.17,2.89-7.52,2.68v-46.2ZM114,113.27l-8.31-2.96-.59-4.05c-.22-1.53-1-2.92-2.18-3.91l-3.55-2.98c-.06-.05-.09-.12-.09-.19v-1.18c0-1.21.77-2.27,1.93-2.65l1.78-.58c1.23-.4,2.25-1.29,2.81-2.45l.72-1.49c1.29-2.66.53-5.9-1.8-7.7l-14.33-11.12c-.44-.34-.9-.64-1.39-.91v-30.44l9.61-6.7c1.47-1.03,2.26-2.77,2.05-4.55l-.27-2.27,13.61,4.85v81.28Z"/>
      <path class="cls-1" d="M67.66,18.37c0-4.92-4-8.91-8.91-8.91s-8.91,4-8.91,8.91,4,8.91,8.91,8.91,8.91-4,8.91-8.91ZM53.34,18.37c0-2.99,2.43-5.41,5.41-5.41s5.41,2.43,5.41,5.41-2.43,5.41-5.41,5.41-5.41-2.43-5.41-5.41Z"/>
    </g>
  </g>
</svg>