<?xml version="1.0" encoding="UTF-8"?>
<svg id="Layer_1" data-name="Layer 1" xmlns="http://www.w3.org/2000/svg" viewBox="0 0 318.16 322.49">
  <defs>
    <style>
      .cls-1 {
        fill: #fff;
      }

      .cls-2 {
        fill: #a1715a;
      }
    </style>
  </defs>
  <path class="cls-2" d="M193.21,298.74h0c.34-.61.52-1.3.52-2.03,0-1.05-.34-1.95-1.01-2.7-.67-.75-1.49-1.13-2.44-1.13H35.75l-.83,2.34h155.36c.37,0,.68.14.94.43.26.3.39.64.39,1.06s-.13.77-.39,1.07c-.27.29-.57.43-.94.43h-13.89v2.34h11.5c1.02,0,1.9.41,2.62,1.22.73.81,1.1,1.8,1.1,2.94v1.17h2.12v-1.17c0-1.82-.59-3.38-1.77-4.65.51-.32.93-.76,1.25-1.32ZM31.24,296.44l-1.38-3.62h-1.39l2.17,4.93-.17.47c-.11.31-.23.52-.34.65-.11.12-.27.18-.47.18-.17,0-.36-.03-.58-.1l-.21.96c.32.11.65.16.99.16.31,0,.57-.06.77-.18.2-.12.38-.31.52-.57.15-.26.31-.58.47-.98l2.21-5.51h-1.34l-1.25,3.62ZM240.54,300.56h19.07v-2.34h-19.07v2.34ZM282.13,292.89h-19.07v2.34h8.5v10.65h2.11v-10.65h8.46v-2.34ZM26.14,292.66c-.34,0-.64.07-.91.2-.27.13-.5.32-.7.57v-2.55h-1.26v7.14h1.23v-.61c.2.27.44.47.71.59.27.12.55.18.85.18.47,0,.87-.11,1.2-.34.33-.23.59-.55.78-.97s.28-.92.28-1.5c0-.82-.18-1.48-.54-1.97-.36-.49-.9-.74-1.62-.74ZM26.67,296.75c-.23.27-.53.41-.89.41s-.68-.13-.91-.39-.34-.67-.34-1.23v-.29c0-.5.12-.89.36-1.16.24-.27.55-.41.94-.41.21,0,.41.05.59.17.18.11.33.29.44.54.11.25.17.59.17,1.01,0,.63-.12,1.08-.35,1.35ZM292.62,292.93l-.03-.04h-1.82l-10.36,12.99h2.84l8.43-10.58,8.4,10.54.03.04h2.84l-10.33-12.95ZM212.81,292.89h-12.15c-.94,0-1.76.38-2.44,1.13-.67.74-1,1.65-1,2.7v5.33c0,1.05.34,1.96,1,2.71.67.75,1.49,1.12,2.44,1.12h12.15c.95,0,1.77-.38,2.44-1.12.67-.75,1.01-1.66,1.01-2.71v-5.33c0-1.05-.34-1.95-1.01-2.7-.67-.75-1.49-1.13-2.44-1.13ZM214.14,302.05c0,.42-.13.76-.39,1.06-.27.3-.57.44-.94.44h-12.15c-.37,0-.67-.14-.93-.44-.27-.29-.4-.64-.4-1.06v-5.33c0-.41.13-.76.4-1.06.26-.29.57-.43.93-.43h12.15c.37,0,.68.14.94.43.26.3.39.65.39,1.06v5.33ZM240.53,305.89h19.07v-2.34h-19.07v2.34ZM259.6,292.89h-19.07v2.34h19.07v-2.34ZM236.03,294.02c-.67-.75-1.49-1.13-2.44-1.13h-13.87v2.34h13.87c.37,0,.68.14.94.43.26.3.39.64.39,1.06s-.13.77-.39,1.07c-.27.29-.57.43-.94.43h-13.87v2.34h13.87c.37,0,.68.14.94.43.26.3.39.65.39,1.07s-.13.77-.39,1.06c-.27.3-.57.44-.94.44h-13.87v2.33h13.87c.95,0,1.77-.38,2.44-1.12.67-.75,1.01-1.66,1.01-2.7s-.33-1.93-.97-2.66c.65-.74.97-1.63.97-2.67s-.34-1.95-1.01-2.7Z"/>
  <path class="cls-1" d="M12.64,248.73h6.65l7.28,28.84,8.33-28.63h6.16l8.12,28.63,7.21-28.84h6.44l-10.57,36.19h-6.44l-8.12-28.84-8.19,28.84h-6.37l-10.5-36.19Z"/>
  <path class="cls-1" d="M80.47,286.04c-2.75,0-5.2-.44-7.35-1.33-2.15-.89-3.97-2.15-5.46-3.78-1.49-1.63-2.64-3.64-3.43-6.02-.79-2.38-1.19-5.04-1.19-7.98s.42-5.6,1.26-7.98c.84-2.38,2.03-4.41,3.57-6.09s3.39-2.98,5.56-3.88c2.17-.91,4.59-1.37,7.25-1.37s5.13.44,7.28,1.33c2.15.89,3.98,2.16,5.5,3.81,1.52,1.66,2.67,3.65,3.46,5.98.79,2.33,1.19,4.97,1.19,7.91s-.41,5.67-1.23,8.05c-.82,2.38-1.98,4.41-3.5,6.09-1.52,1.68-3.37,2.98-5.56,3.88-2.19.91-4.64,1.37-7.35,1.37ZM80.54,281c1.96,0,3.64-.35,5.04-1.05,1.4-.7,2.55-1.68,3.46-2.94.91-1.26,1.58-2.76,2-4.51s.63-3.68.63-5.78-.21-3.94-.63-5.67c-.42-1.73-1.08-3.21-2-4.44-.91-1.24-2.06-2.21-3.46-2.91-1.4-.7-3.08-1.05-5.04-1.05s-3.63.35-5,1.05c-1.38.7-2.52,1.67-3.43,2.91-.91,1.24-1.58,2.72-2,4.44-.42,1.73-.63,3.64-.63,5.74s.21,4.01.63,5.74c.42,1.73,1.07,3.22,1.96,4.48.89,1.26,2.03,2.24,3.43,2.94,1.4.7,3.08,1.05,5.04,1.05Z"/>
  <path class="cls-1" d="M102.1,248.73h6.02v5.53c1.63-2.24,3.43-3.91,5.39-5,1.96-1.1,3.97-1.65,6.02-1.65,2.71,0,4.89.58,6.54,1.75,1.66,1.17,2.88,2.85,3.67,5.04,1.63-2.24,3.5-3.93,5.6-5.08,2.1-1.14,4.34-1.71,6.72-1.71,3.55,0,6.29.97,8.22,2.91,1.94,1.94,2.91,5.05,2.91,9.34v25.06h-6.09v-23.66c0-1.63-.14-3-.42-4.09-.28-1.1-.69-1.96-1.23-2.59-.54-.63-1.2-1.07-2-1.33-.79-.26-1.7-.39-2.73-.39s-2.19.19-3.36.56c-1.17.37-2.31,1.03-3.43,1.96-.93.79-1.7,1.75-2.31,2.87-.61,1.12-.91,2.4-.91,3.85v22.82h-6.09v-23.59c0-3.17-.55-5.38-1.65-6.62-1.1-1.24-2.67-1.85-4.72-1.85-2.38,0-4.62.98-6.72,2.94-.79.75-1.55,1.7-2.27,2.87-.72,1.17-1.08,2.73-1.08,4.69v21.56h-6.09v-36.19Z"/>
  <path class="cls-1" d="M174.41,286.04c-2.75,0-5.2-.44-7.35-1.33-2.15-.89-3.97-2.15-5.46-3.78-1.49-1.63-2.64-3.64-3.43-6.02-.79-2.38-1.19-5.04-1.19-7.98s.42-5.6,1.26-7.98c.84-2.38,2.03-4.41,3.57-6.09s3.39-2.98,5.56-3.88c2.17-.91,4.59-1.37,7.25-1.37s5.13.44,7.28,1.33c2.15.89,3.98,2.16,5.5,3.81,1.52,1.66,2.67,3.65,3.46,5.98.79,2.33,1.19,4.97,1.19,7.91s-.41,5.67-1.23,8.05c-.82,2.38-1.98,4.41-3.5,6.09-1.52,1.68-3.37,2.98-5.56,3.88-2.19.91-4.64,1.37-7.35,1.37ZM174.48,281c1.96,0,3.64-.35,5.04-1.05,1.4-.7,2.55-1.68,3.46-2.94.91-1.26,1.58-2.76,2-4.51s.63-3.68.63-5.78-.21-3.94-.63-5.67c-.42-1.73-1.08-3.21-2-4.44-.91-1.24-2.06-2.21-3.46-2.91-1.4-.7-3.08-1.05-5.04-1.05s-3.63.35-5,1.05c-1.38.7-2.52,1.67-3.43,2.91-.91,1.24-1.58,2.72-2,4.44-.42,1.73-.63,3.64-.63,5.74s.21,4.01.63,5.74c.42,1.73,1.07,3.22,1.96,4.48.89,1.26,2.03,2.24,3.43,2.94,1.4.7,3.08,1.05,5.04,1.05Z"/>
  <path class="cls-1" d="M196.04,248.73h6.02v5.53c1.77-2.38,3.73-4.08,5.88-5.11,2.15-1.03,4.41-1.54,6.79-1.54,4.11,0,7.15,1.12,9.13,3.36,1.98,2.24,2.98,5.53,2.98,9.87v24.08h-6.09v-22.89c0-3.36-.61-5.73-1.82-7.1-1.21-1.38-3.08-2.06-5.6-2.06-1.35,0-2.7.23-4.03.7-1.33.47-2.53,1.21-3.61,2.24-1.17,1.03-2.05,2.11-2.66,3.25-.61,1.14-.91,2.62-.91,4.45v21.42h-6.09v-36.19Z"/>
  <path class="cls-1" d="M258.06,279.74c-1.49,2.01-3.22,3.56-5.18,4.66-1.96,1.1-4.27,1.65-6.93,1.65s-4.96-.49-6.9-1.47-3.54-2.32-4.79-4.02c-1.26-1.7-2.19-3.72-2.8-6.06-.61-2.33-.91-4.83-.91-7.49,0-2.99.37-5.68,1.12-8.08.75-2.4,1.81-4.45,3.18-6.12,1.38-1.68,3.06-2.96,5.04-3.85,1.98-.89,4.24-1.33,6.75-1.33,1.91,0,3.85.39,5.81,1.16s3.78,2.23,5.46,4.38v-18.91h6.09v50.69h-5.95v-5.18ZM258.13,265.74c0-2.89-.32-5.15-.95-6.75s-1.67-2.98-3.12-4.09c-1.03-.84-2.06-1.42-3.11-1.75-1.05-.33-2.21-.49-3.46-.49-1.49,0-2.88.26-4.17.77-1.28.51-2.4,1.34-3.36,2.48-.96,1.14-1.7,2.61-2.24,4.41-.54,1.8-.8,3.98-.8,6.54s.29,4.9.88,6.72c.58,1.82,1.35,3.27,2.31,4.34.96,1.07,2.03,1.84,3.22,2.31,1.19.47,2.42.7,3.67.7,1.35,0,2.57-.16,3.64-.49,1.07-.33,2.15-.89,3.22-1.68,1.4-1.12,2.46-2.52,3.19-4.2.72-1.68,1.08-3.8,1.08-6.37v-2.45Z"/>
  <path class="cls-1" d="M285.5,286.04c-2.75,0-5.2-.44-7.35-1.33-2.15-.89-3.97-2.15-5.46-3.78-1.49-1.63-2.64-3.64-3.43-6.02-.79-2.38-1.19-5.04-1.19-7.98s.42-5.6,1.26-7.98c.84-2.38,2.03-4.41,3.57-6.09s3.39-2.98,5.56-3.88c2.17-.91,4.59-1.37,7.25-1.37s5.13.44,7.28,1.33c2.15.89,3.98,2.16,5.5,3.81,1.52,1.66,2.67,3.65,3.46,5.98.79,2.33,1.19,4.97,1.19,7.91s-.41,5.67-1.23,8.05c-.82,2.38-1.98,4.41-3.5,6.09-1.52,1.68-3.37,2.98-5.56,3.88-2.19.91-4.64,1.37-7.35,1.37ZM285.57,281c1.96,0,3.64-.35,5.04-1.05,1.4-.7,2.55-1.68,3.46-2.94.91-1.26,1.58-2.76,2-4.51s.63-3.68.63-5.78-.21-3.94-.63-5.67c-.42-1.73-1.08-3.21-2-4.44-.91-1.24-2.06-2.21-3.46-2.91-1.4-.7-3.08-1.05-5.04-1.05s-3.63.35-5,1.05c-1.38.7-2.52,1.67-3.43,2.91-.91,1.24-1.58,2.72-2,4.44-.42,1.73-.63,3.64-.63,5.74s.21,4.01.63,5.74c.42,1.73,1.07,3.22,1.96,4.48.89,1.26,2.03,2.24,3.43,2.94,1.4.7,3.08,1.05,5.04,1.05Z"/>
  <path class="cls-1" d="M14.95,14.94h37.64l41.2,163.22L140.94,16.13h34.86l45.95,162.03L262.56,14.94h36.45l-59.82,204.82h-36.44l-45.96-163.22-46.35,163.22h-36.05L14.95,14.94Z"/>
</svg>