<?xml version="1.0" encoding="UTF-8"?>
<svg id="Layer_2" data-name="Layer 2" xmlns="http://www.w3.org/2000/svg" viewBox="0 0 299.76 71.66">
  <defs>
    <style>
      .cls-1 {
        fill: #a1715a;
      }

      .cls-1, .cls-2 {
        stroke-width: 0px;
      }

      .cls-2 {
        fill: #fff;
      }
    </style>
  </defs>
  <g id="Layer_1-2" data-name="Layer 1">
    <g>
      <path class="cls-1" d="M295.84,10.58c-.95-.69-1.44-2.03-2.21-2.87-.2-.21-.36-.34-.58-.5,2.16-1.39,1.63-5.08-1.64-5.97.31.23.37.29.62.61-.34-.26-1.23-.77-1.98-.77.32.14.65.31.81.45-.3-.16-1.64-.54-3.18-.18-.05.01-.04.08,0,.08.76.09,2.78.48,3.58.87,1.93.95,1.92,2.88.59,3.93,0,0-.22-.13-.38-.22-.56-.3-1.02-.35-1.52-.19-.45.15-.67.43-.67.43,0,0-.51.11-.66.33-.04.05,0,.14.07.14.51,0,.97-.16,1.84.36,1.03.6.76,1.21,2.66,2.9.92.82,2.35,1.51,2.35,1.51l-.28-.39s.48.43,1.11.69c.54.22.94.3.94.3l-.82-.61s.57.38,1.58.7c.65.21,1.32.13,1.32.13,0,0-1.73-.41-3.53-1.73Z"/>
      <path class="cls-1" d="M296.18,11.93s-.09.05-.09.05c-.89.53-1.94.83-3.05.83-3.32,0-6.03-2.7-6.03-6.03,0-1.97.95-3.73,2.42-4.83-.3-.07-.59-.13-.87-.18-1.38,1.23-2.24,3.02-2.24,5.01,0,3.71,3.01,6.72,6.72,6.72,1.47,0,2.83-.48,3.94-1.28-.17-.05-.42-.13-.7-.24-.04-.02-.07-.03-.11-.05Z"/>
      <path class="cls-1" d="M290.73,1l-.3-.22.86.23c.55-.17,1.14-.26,1.75-.26,3.32,0,6.03,2.7,6.03,6.03,0,1.74-.74,3.3-1.92,4.4.23.12.45.24.65.33,1.21-1.22,1.96-2.89,1.96-4.73,0-3.71-3.01-6.72-6.72-6.72-1.17,0-2.27.3-3.23.83h.23c.23,0,.46.04.69.11Z"/>
    </g>
    <g>
      <path class="cls-2" d="M10.64,56.65h1.26v2.55c.2-.25.43-.44.7-.57.27-.13.57-.2.91-.2.72,0,1.26.25,1.62.74.36.49.54,1.15.54,1.97,0,.57-.09,1.07-.28,1.5s-.44.75-.78.97c-.33.23-.73.34-1.2.34-.29,0-.58-.06-.85-.18-.27-.12-.5-.32-.71-.59v.61h-1.23v-7.14ZM13.78,59.61c-.18-.11-.38-.17-.59-.17-.39,0-.7.14-.94.41-.24.27-.36.66-.36,1.16v.29c0,.56.11.97.34,1.23s.53.39.91.39.67-.14.89-.41c.23-.27.35-.72.35-1.35,0-.43-.06-.76-.17-1.01-.11-.25-.25-.43-.44-.54Z"/>
      <path class="cls-2" d="M18.99,64.1c-.16.4-.32.73-.47.98-.15.26-.32.45-.52.57-.2.12-.46.18-.77.18-.34,0-.67-.05-.99-.16l.21-.96c.22.07.41.1.58.1.2,0,.36-.06.47-.18.11-.12.23-.34.34-.65l.17-.47-2.17-4.93h1.39l1.38,3.62,1.25-3.62h1.34l-2.21,5.51Z"/>
    </g>
    <g>
      <rect class="cls-1" x="227.89" y="58.66" width="19.07" height="2.34"/>
      <polygon class="cls-1" points="279.99 58.7 279.96 58.67 278.13 58.67 267.77 71.66 270.61 71.66 279.04 61.08 287.44 71.62 287.47 71.66 290.31 71.66 279.99 58.7"/>
      <rect class="cls-1" x="227.9" y="63.99" width="19.07" height="2.34"/>
      <rect class="cls-1" x="227.89" y="69.32" width="19.07" height="2.34"/>
      <polygon class="cls-1" points="269.49 58.66 250.42 58.66 250.42 61 258.92 61 258.92 71.65 261.03 71.65 261.03 61 269.49 61 269.49 58.66"/>
      <path class="cls-1" d="M180.57,64.52h0c.34-.61.52-1.3.52-2.03,0-1.05-.34-1.95-1.01-2.69-.67-.75-1.49-1.13-2.44-1.13h-13.89v2.34h13.89c.37,0,.68.14.94.43.26.3.39.64.39,1.06s-.13.77-.39,1.07c-.27.29-.57.43-.94.43h-13.89v2.34h11.5c1.02,0,1.9.41,2.62,1.22.73.81,1.1,1.8,1.1,2.94v1.17h2.12v-1.17c0-1.82-.59-3.38-1.77-4.65.51-.32.93-.76,1.25-1.32Z"/>
      <polyline class="cls-1" points="177.64 58.66 23.11 58.66 22.28 61 177.64 61"/>
      <path class="cls-1" d="M223.39,59.8c-.67-.75-1.49-1.13-2.44-1.13h-13.87v2.34h13.87c.37,0,.68.14.94.43.26.3.39.64.39,1.06s-.13.77-.39,1.07c-.27.29-.57.43-.94.43h-13.87v2.34h13.87c.37,0,.68.14.94.43.26.3.39.65.39,1.07s-.13.77-.39,1.06c-.27.3-.57.44-.94.44h-13.87v2.33h13.87c.95,0,1.77-.38,2.44-1.12.67-.75,1.01-1.66,1.01-2.7s-.33-1.93-.97-2.66c.65-.74.97-1.63.97-2.67s-.34-1.95-1.01-2.69Z"/>
      <path class="cls-1" d="M200.17,58.66h-12.15c-.94,0-1.76.38-2.44,1.13-.67.74-1,1.65-1,2.7v5.33c0,1.05.34,1.96,1,2.71.67.75,1.49,1.12,2.44,1.12h12.15c.95,0,1.77-.38,2.44-1.12.67-.75,1.01-1.66,1.01-2.71v-5.33c0-1.05-.34-1.95-1.01-2.7-.67-.75-1.49-1.13-2.44-1.13ZM201.5,62.49v5.33c0,.42-.13.76-.39,1.06-.27.3-.57.44-.94.44h-12.15c-.37,0-.67-.14-.93-.44-.27-.29-.4-.64-.4-1.06v-5.33c0-.41.13-.76.4-1.06.26-.29.57-.43.93-.43h12.15c.37,0,.68.14.94.43.26.3.39.65.39,1.06Z"/>
    </g>
    <g>
      <path class="cls-2" d="M0,14.5h6.65l7.28,28.84,8.33-28.63h6.16l8.12,28.63,7.21-28.84h6.44l-10.57,36.19h-6.44l-8.12-28.84-8.19,28.84h-6.37L0,14.5Z"/>
      <path class="cls-2" d="M67.83,51.81c-2.75,0-5.2-.44-7.35-1.33-2.15-.89-3.97-2.15-5.46-3.78-1.49-1.63-2.64-3.64-3.43-6.02-.79-2.38-1.19-5.04-1.19-7.98s.42-5.6,1.26-7.98c.84-2.38,2.03-4.41,3.57-6.09s3.39-2.98,5.56-3.88c2.17-.91,4.59-1.37,7.25-1.37s5.13.44,7.28,1.33c2.15.89,3.98,2.16,5.5,3.81,1.52,1.66,2.67,3.65,3.46,5.98.79,2.33,1.19,4.97,1.19,7.91s-.41,5.67-1.23,8.05c-.82,2.38-1.98,4.41-3.5,6.09-1.52,1.68-3.37,2.98-5.56,3.88-2.19.91-4.64,1.37-7.35,1.37ZM67.9,46.77c1.96,0,3.64-.35,5.04-1.05,1.4-.7,2.55-1.68,3.46-2.94.91-1.26,1.58-2.76,2-4.51s.63-3.68.63-5.78-.21-3.94-.63-5.67c-.42-1.73-1.08-3.21-2-4.44-.91-1.24-2.06-2.21-3.46-2.91-1.4-.7-3.08-1.05-5.04-1.05s-3.63.35-5,1.05c-1.38.7-2.52,1.67-3.43,2.91-.91,1.24-1.58,2.72-2,4.44-.42,1.73-.63,3.64-.63,5.74s.21,4.01.63,5.74c.42,1.73,1.07,3.22,1.96,4.48.89,1.26,2.03,2.24,3.43,2.94,1.4.7,3.08,1.05,5.04,1.05Z"/>
      <path class="cls-2" d="M89.46,14.5h6.02v5.53c1.63-2.24,3.43-3.91,5.39-5,1.96-1.1,3.97-1.65,6.02-1.65,2.71,0,4.89.58,6.54,1.75,1.66,1.17,2.88,2.85,3.67,5.04,1.63-2.24,3.5-3.93,5.6-5.08,2.1-1.14,4.34-1.71,6.72-1.71,3.55,0,6.29.97,8.22,2.91,1.94,1.94,2.91,5.05,2.91,9.34v25.06h-6.09v-23.66c0-1.63-.14-3-.42-4.09-.28-1.1-.69-1.96-1.23-2.59-.54-.63-1.2-1.07-2-1.33-.79-.26-1.7-.39-2.73-.39s-2.19.19-3.36.56c-1.17.37-2.31,1.03-3.43,1.96-.93.79-1.7,1.75-2.31,2.87-.61,1.12-.91,2.4-.91,3.85v22.82h-6.09v-23.59c0-3.17-.55-5.38-1.65-6.62-1.1-1.24-2.67-1.85-4.72-1.85-2.38,0-4.62.98-6.72,2.94-.79.75-1.55,1.7-2.27,2.87-.72,1.17-1.08,2.73-1.08,4.69v21.56h-6.09V14.5Z"/>
      <path class="cls-2" d="M161.77,51.81c-2.75,0-5.2-.44-7.35-1.33-2.15-.89-3.97-2.15-5.46-3.78-1.49-1.63-2.64-3.64-3.43-6.02-.79-2.38-1.19-5.04-1.19-7.98s.42-5.6,1.26-7.98c.84-2.38,2.03-4.41,3.57-6.09s3.39-2.98,5.56-3.88c2.17-.91,4.59-1.37,7.25-1.37s5.13.44,7.28,1.33c2.15.89,3.98,2.16,5.5,3.81,1.52,1.66,2.67,3.65,3.46,5.98.79,2.33,1.19,4.97,1.19,7.91s-.41,5.67-1.23,8.05c-.82,2.38-1.98,4.41-3.5,6.09-1.52,1.68-3.37,2.98-5.56,3.88-2.19.91-4.64,1.37-7.35,1.37ZM161.84,46.77c1.96,0,3.64-.35,5.04-1.05,1.4-.7,2.55-1.68,3.46-2.94.91-1.26,1.58-2.76,2-4.51s.63-3.68.63-5.78-.21-3.94-.63-5.67c-.42-1.73-1.08-3.21-2-4.44-.91-1.24-2.06-2.21-3.46-2.91-1.4-.7-3.08-1.05-5.04-1.05s-3.63.35-5,1.05c-1.38.7-2.52,1.67-3.43,2.91-.91,1.24-1.58,2.72-2,4.44-.42,1.73-.63,3.64-.63,5.74s.21,4.01.63,5.74c.42,1.73,1.07,3.22,1.96,4.48.89,1.26,2.03,2.24,3.43,2.94,1.4.7,3.08,1.05,5.04,1.05Z"/>
      <path class="cls-2" d="M183.4,14.5h6.02v5.53c1.77-2.38,3.73-4.08,5.88-5.11,2.15-1.03,4.41-1.54,6.79-1.54,4.11,0,7.15,1.12,9.13,3.36,1.98,2.24,2.98,5.53,2.98,9.87v24.08h-6.09v-22.89c0-3.36-.61-5.73-1.82-7.1-1.21-1.38-3.08-2.06-5.6-2.06-1.35,0-2.7.23-4.03.7-1.33.47-2.53,1.21-3.61,2.24-1.17,1.03-2.05,2.11-2.66,3.25-.61,1.14-.91,2.62-.91,4.45v21.42h-6.09V14.5Z"/>
      <path class="cls-2" d="M245.42,45.51c-1.49,2.01-3.22,3.56-5.18,4.66-1.96,1.1-4.27,1.65-6.93,1.65s-4.96-.49-6.9-1.47-3.54-2.32-4.79-4.02c-1.26-1.7-2.19-3.72-2.8-6.06-.61-2.33-.91-4.83-.91-7.49,0-2.99.37-5.68,1.12-8.08.75-2.4,1.81-4.45,3.18-6.12,1.38-1.68,3.06-2.96,5.04-3.85,1.98-.89,4.24-1.33,6.75-1.33,1.91,0,3.85.39,5.81,1.16s3.78,2.23,5.46,4.38V0h6.09v50.69h-5.95v-5.18ZM245.49,31.51c0-2.89-.32-5.15-.95-6.75s-1.67-2.98-3.12-4.09c-1.03-.84-2.06-1.42-3.11-1.75-1.05-.33-2.21-.49-3.46-.49-1.49,0-2.88.26-4.17.77-1.28.51-2.4,1.34-3.36,2.48-.96,1.14-1.7,2.61-2.24,4.41-.54,1.8-.8,3.98-.8,6.54s.29,4.9.88,6.72c.58,1.82,1.35,3.27,2.31,4.34.96,1.07,2.03,1.84,3.22,2.31,1.19.47,2.42.7,3.67.7,1.35,0,2.57-.16,3.64-.49,1.07-.33,2.15-.89,3.22-1.68,1.4-1.12,2.46-2.52,3.19-4.2.72-1.68,1.08-3.8,1.08-6.37v-2.45Z"/>
      <path class="cls-2" d="M272.86,51.81c-2.75,0-5.2-.44-7.35-1.33-2.15-.89-3.97-2.15-5.46-3.78-1.49-1.63-2.64-3.64-3.43-6.02-.79-2.38-1.19-5.04-1.19-7.98s.42-5.6,1.26-7.98c.84-2.38,2.03-4.41,3.57-6.09s3.39-2.98,5.56-3.88c2.17-.91,4.59-1.37,7.25-1.37s5.13.44,7.28,1.33c2.15.89,3.98,2.16,5.5,3.81,1.52,1.66,2.67,3.65,3.46,5.98.79,2.33,1.19,4.97,1.19,7.91s-.41,5.67-1.23,8.05c-.82,2.38-1.98,4.41-3.5,6.09-1.52,1.68-3.37,2.98-5.56,3.88-2.19.91-4.64,1.37-7.35,1.37ZM272.93,46.77c1.96,0,3.64-.35,5.04-1.05,1.4-.7,2.55-1.68,3.46-2.94.91-1.26,1.58-2.76,2-4.51s.63-3.68.63-5.78-.21-3.94-.63-5.67c-.42-1.73-1.08-3.21-2-4.44-.91-1.24-2.06-2.21-3.46-2.91-1.4-.7-3.08-1.05-5.04-1.05s-3.63.35-5,1.05c-1.38.7-2.52,1.67-3.43,2.91-.91,1.24-1.58,2.72-2,4.44-.42,1.73-.63,3.64-.63,5.74s.21,4.01.63,5.74c.42,1.73,1.07,3.22,1.96,4.48.89,1.26,2.03,2.24,3.43,2.94,1.4.7,3.08,1.05,5.04,1.05Z"/>
    </g>
    <g>
      <path class="cls-1" d="M295.84,10.58c-.95-.69-1.44-2.03-2.21-2.87-.2-.21-.36-.34-.58-.5,2.16-1.39,1.63-5.08-1.64-5.97.31.23.37.29.62.61-.34-.26-1.23-.77-1.98-.77.32.14.65.31.81.45-.3-.16-1.64-.54-3.18-.18-.05.01-.04.08,0,.08.76.09,2.78.48,3.58.87,1.93.95,1.92,2.88.59,3.93,0,0-.22-.13-.38-.22-.56-.3-1.02-.35-1.52-.19-.45.15-.67.43-.67.43,0,0-.51.11-.66.33-.04.05,0,.14.07.14.51,0,.97-.16,1.84.36,1.03.6.76,1.21,2.66,2.9.92.82,2.35,1.51,2.35,1.51l-.28-.39s.48.43,1.11.69c.54.22.94.3.94.3l-.82-.61s.57.38,1.58.7c.65.21,1.32.13,1.32.13,0,0-1.73-.41-3.53-1.73Z"/>
      <path class="cls-1" d="M296.18,11.93s-.09.05-.09.05c-.89.53-1.94.83-3.05.83-3.32,0-6.03-2.7-6.03-6.03,0-1.97.95-3.73,2.42-4.83-.3-.07-.59-.13-.87-.18-1.38,1.23-2.24,3.02-2.24,5.01,0,3.71,3.01,6.72,6.72,6.72,1.47,0,2.83-.48,3.94-1.28-.17-.05-.42-.13-.7-.24-.04-.02-.07-.03-.11-.05Z"/>
      <path class="cls-1" d="M290.73,1l-.3-.22.86.23c.55-.17,1.14-.26,1.75-.26,3.32,0,6.03,2.7,6.03,6.03,0,1.74-.74,3.3-1.92,4.4.23.12.45.24.65.33,1.21-1.22,1.96-2.89,1.96-4.73,0-3.71-3.01-6.72-6.72-6.72-1.17,0-2.27.3-3.23.83h.23c.23,0,.46.04.69.11Z"/>
    </g>
    <g>
      <path class="cls-2" d="M10.64,56.65h1.26v2.55c.2-.25.43-.44.7-.57.27-.13.57-.2.91-.2.72,0,1.26.25,1.62.74.36.49.54,1.15.54,1.97,0,.57-.09,1.07-.28,1.5s-.44.75-.78.97c-.33.23-.73.34-1.2.34-.29,0-.58-.06-.85-.18-.27-.12-.5-.32-.71-.59v.61h-1.23v-7.14ZM13.78,59.61c-.18-.11-.38-.17-.59-.17-.39,0-.7.14-.94.41-.24.27-.36.66-.36,1.16v.29c0,.56.11.97.34,1.23s.53.39.91.39.67-.14.89-.41c.23-.27.35-.72.35-1.35,0-.43-.06-.76-.17-1.01-.11-.25-.25-.43-.44-.54Z"/>
      <path class="cls-2" d="M18.99,64.1c-.16.4-.32.73-.47.98-.15.26-.32.45-.52.57-.2.12-.46.18-.77.18-.34,0-.67-.05-.99-.16l.21-.96c.22.07.41.1.58.1.2,0,.36-.06.47-.18.11-.12.23-.34.34-.65l.17-.47-2.17-4.93h1.39l1.38,3.62,1.25-3.62h1.34l-2.21,5.51Z"/>
    </g>
    <g>
      <rect class="cls-1" x="227.89" y="58.66" width="19.07" height="2.34"/>
      <polygon class="cls-1" points="279.99 58.7 279.96 58.67 278.13 58.67 267.77 71.66 270.61 71.66 279.04 61.08 287.44 71.62 287.47 71.66 290.31 71.66 279.99 58.7"/>
      <rect class="cls-1" x="227.9" y="63.99" width="19.07" height="2.34"/>
      <rect class="cls-1" x="227.89" y="69.32" width="19.07" height="2.34"/>
      <polygon class="cls-1" points="269.49 58.66 250.42 58.66 250.42 61 258.92 61 258.92 71.65 261.03 71.65 261.03 61 269.49 61 269.49 58.66"/>
      <path class="cls-1" d="M180.57,64.52h0c.34-.61.52-1.3.52-2.03,0-1.05-.34-1.95-1.01-2.69-.67-.75-1.49-1.13-2.44-1.13h-13.89v2.34h13.89c.37,0,.68.14.94.43.26.3.39.64.39,1.06s-.13.77-.39,1.07c-.27.29-.57.43-.94.43h-13.89v2.34h11.5c1.02,0,1.9.41,2.62,1.22.73.81,1.1,1.8,1.1,2.94v1.17h2.12v-1.17c0-1.82-.59-3.38-1.77-4.65.51-.32.93-.76,1.25-1.32Z"/>
      <polyline class="cls-1" points="177.64 58.66 23.11 58.66 22.28 61 177.64 61"/>
      <path class="cls-1" d="M223.39,59.8c-.67-.75-1.49-1.13-2.44-1.13h-13.87v2.34h13.87c.37,0,.68.14.94.43.26.3.39.64.39,1.06s-.13.77-.39,1.07c-.27.29-.57.43-.94.43h-13.87v2.34h13.87c.37,0,.68.14.94.43.26.3.39.65.39,1.07s-.13.77-.39,1.06c-.27.3-.57.44-.94.44h-13.87v2.33h13.87c.95,0,1.77-.38,2.44-1.12.67-.75,1.01-1.66,1.01-2.7s-.33-1.93-.97-2.66c.65-.74.97-1.63.97-2.67s-.34-1.95-1.01-2.69Z"/>
      <path class="cls-1" d="M200.17,58.66h-12.15c-.94,0-1.76.38-2.44,1.13-.67.74-1,1.65-1,2.7v5.33c0,1.05.34,1.96,1,2.71.67.75,1.49,1.12,2.44,1.12h12.15c.95,0,1.77-.38,2.44-1.12.67-.75,1.01-1.66,1.01-2.71v-5.33c0-1.05-.34-1.95-1.01-2.7-.67-.75-1.49-1.13-2.44-1.13ZM201.5,62.49v5.33c0,.42-.13.76-.39,1.06-.27.3-.57.44-.94.44h-12.15c-.37,0-.67-.14-.93-.44-.27-.29-.4-.64-.4-1.06v-5.33c0-.41.13-.76.4-1.06.26-.29.57-.43.93-.43h12.15c.37,0,.68.14.94.43.26.3.39.65.39,1.06Z"/>
    </g>
    <g>
      <path class="cls-2" d="M0,14.5h6.65l7.28,28.84,8.33-28.63h6.16l8.12,28.63,7.21-28.84h6.44l-10.57,36.19h-6.44l-8.12-28.84-8.19,28.84h-6.37L0,14.5Z"/>
      <path class="cls-2" d="M67.83,51.81c-2.75,0-5.2-.44-7.35-1.33-2.15-.89-3.97-2.15-5.46-3.78-1.49-1.63-2.64-3.64-3.43-6.02-.79-2.38-1.19-5.04-1.19-7.98s.42-5.6,1.26-7.98c.84-2.38,2.03-4.41,3.57-6.09s3.39-2.98,5.56-3.88c2.17-.91,4.59-1.37,7.25-1.37s5.13.44,7.28,1.33c2.15.89,3.98,2.16,5.5,3.81,1.52,1.66,2.67,3.65,3.46,5.98.79,2.33,1.19,4.97,1.19,7.91s-.41,5.67-1.23,8.05c-.82,2.38-1.98,4.41-3.5,6.09-1.52,1.68-3.37,2.98-5.56,3.88-2.19.91-4.64,1.37-7.35,1.37ZM67.9,46.77c1.96,0,3.64-.35,5.04-1.05,1.4-.7,2.55-1.68,3.46-2.94.91-1.26,1.58-2.76,2-4.51s.63-3.68.63-5.78-.21-3.94-.63-5.67c-.42-1.73-1.08-3.21-2-4.44-.91-1.24-2.06-2.21-3.46-2.91-1.4-.7-3.08-1.05-5.04-1.05s-3.63.35-5,1.05c-1.38.7-2.52,1.67-3.43,2.91-.91,1.24-1.58,2.72-2,4.44-.42,1.73-.63,3.64-.63,5.74s.21,4.01.63,5.74c.42,1.73,1.07,3.22,1.96,4.48.89,1.26,2.03,2.24,3.43,2.94,1.4.7,3.08,1.05,5.04,1.05Z"/>
      <path class="cls-2" d="M89.46,14.5h6.02v5.53c1.63-2.24,3.43-3.91,5.39-5,1.96-1.1,3.97-1.65,6.02-1.65,2.71,0,4.89.58,6.54,1.75,1.66,1.17,2.88,2.85,3.67,5.04,1.63-2.24,3.5-3.93,5.6-5.08,2.1-1.14,4.34-1.71,6.72-1.71,3.55,0,6.29.97,8.22,2.91,1.94,1.94,2.91,5.05,2.91,9.34v25.06h-6.09v-23.66c0-1.63-.14-3-.42-4.09-.28-1.1-.69-1.96-1.23-2.59-.54-.63-1.2-1.07-2-1.33-.79-.26-1.7-.39-2.73-.39s-2.19.19-3.36.56c-1.17.37-2.31,1.03-3.43,1.96-.93.79-1.7,1.75-2.31,2.87-.61,1.12-.91,2.4-.91,3.85v22.82h-6.09v-23.59c0-3.17-.55-5.38-1.65-6.62-1.1-1.24-2.67-1.85-4.72-1.85-2.38,0-4.62.98-6.72,2.94-.79.75-1.55,1.7-2.27,2.87-.72,1.17-1.08,2.73-1.08,4.69v21.56h-6.09V14.5Z"/>
      <path class="cls-2" d="M161.77,51.81c-2.75,0-5.2-.44-7.35-1.33-2.15-.89-3.97-2.15-5.46-3.78-1.49-1.63-2.64-3.64-3.43-6.02-.79-2.38-1.19-5.04-1.19-7.98s.42-5.6,1.26-7.98c.84-2.38,2.03-4.41,3.57-6.09s3.39-2.98,5.56-3.88c2.17-.91,4.59-1.37,7.25-1.37s5.13.44,7.28,1.33c2.15.89,3.98,2.16,5.5,3.81,1.52,1.66,2.67,3.65,3.46,5.98.79,2.33,1.19,4.97,1.19,7.91s-.41,5.67-1.23,8.05c-.82,2.38-1.98,4.41-3.5,6.09-1.52,1.68-3.37,2.98-5.56,3.88-2.19.91-4.64,1.37-7.35,1.37ZM161.84,46.77c1.96,0,3.64-.35,5.04-1.05,1.4-.7,2.55-1.68,3.46-2.94.91-1.26,1.58-2.76,2-4.51s.63-3.68.63-5.78-.21-3.94-.63-5.67c-.42-1.73-1.08-3.21-2-4.44-.91-1.24-2.06-2.21-3.46-2.91-1.4-.7-3.08-1.05-5.04-1.05s-3.63.35-5,1.05c-1.38.7-2.52,1.67-3.43,2.91-.91,1.24-1.58,2.72-2,4.44-.42,1.73-.63,3.64-.63,5.74s.21,4.01.63,5.74c.42,1.73,1.07,3.22,1.96,4.48.89,1.26,2.03,2.24,3.43,2.94,1.4.7,3.08,1.05,5.04,1.05Z"/>
      <path class="cls-2" d="M183.4,14.5h6.02v5.53c1.77-2.38,3.73-4.08,5.88-5.11,2.15-1.03,4.41-1.54,6.79-1.54,4.11,0,7.15,1.12,9.13,3.36,1.98,2.24,2.98,5.53,2.98,9.87v24.08h-6.09v-22.89c0-3.36-.61-5.73-1.82-7.1-1.21-1.38-3.08-2.06-5.6-2.06-1.35,0-2.7.23-4.03.7-1.33.47-2.53,1.21-3.61,2.24-1.17,1.03-2.05,2.11-2.66,3.25-.61,1.14-.91,2.62-.91,4.45v21.42h-6.09V14.5Z"/>
      <path class="cls-2" d="M245.42,45.51c-1.49,2.01-3.22,3.56-5.18,4.66-1.96,1.1-4.27,1.65-6.93,1.65s-4.96-.49-6.9-1.47-3.54-2.32-4.79-4.02c-1.26-1.7-2.19-3.72-2.8-6.06-.61-2.33-.91-4.83-.91-7.49,0-2.99.37-5.68,1.12-8.08.75-2.4,1.81-4.45,3.18-6.12,1.38-1.68,3.06-2.96,5.04-3.85,1.98-.89,4.24-1.33,6.75-1.33,1.91,0,3.85.39,5.81,1.16s3.78,2.23,5.46,4.38V0h6.09v50.69h-5.95v-5.18ZM245.49,31.51c0-2.89-.32-5.15-.95-6.75s-1.67-2.98-3.12-4.09c-1.03-.84-2.06-1.42-3.11-1.75-1.05-.33-2.21-.49-3.46-.49-1.49,0-2.88.26-4.17.77-1.28.51-2.4,1.34-3.36,2.48-.96,1.14-1.7,2.61-2.24,4.41-.54,1.8-.8,3.98-.8,6.54s.29,4.9.88,6.72c.58,1.82,1.35,3.27,2.31,4.34.96,1.07,2.03,1.84,3.22,2.31,1.19.47,2.42.7,3.67.7,1.35,0,2.57-.16,3.64-.49,1.07-.33,2.15-.89,3.22-1.68,1.4-1.12,2.46-2.52,3.19-4.2.72-1.68,1.08-3.8,1.08-6.37v-2.45Z"/>
      <path class="cls-2" d="M272.86,51.81c-2.75,0-5.2-.44-7.35-1.33-2.15-.89-3.97-2.15-5.46-3.78-1.49-1.63-2.64-3.64-3.43-6.02-.79-2.38-1.19-5.04-1.19-7.98s.42-5.6,1.26-7.98c.84-2.38,2.03-4.41,3.57-6.09s3.39-2.98,5.56-3.88c2.17-.91,4.59-1.37,7.25-1.37s5.13.44,7.28,1.33c2.15.89,3.98,2.16,5.5,3.81,1.52,1.66,2.67,3.65,3.46,5.98.79,2.33,1.19,4.97,1.19,7.91s-.41,5.67-1.23,8.05c-.82,2.38-1.98,4.41-3.5,6.09-1.52,1.68-3.37,2.98-5.56,3.88-2.19.91-4.64,1.37-7.35,1.37ZM272.93,46.77c1.96,0,3.64-.35,5.04-1.05,1.4-.7,2.55-1.68,3.46-2.94.91-1.26,1.58-2.76,2-4.51s.63-3.68.63-5.78-.21-3.94-.63-5.67c-.42-1.73-1.08-3.21-2-4.44-.91-1.24-2.06-2.21-3.46-2.91-1.4-.7-3.08-1.05-5.04-1.05s-3.63.35-5,1.05c-1.38.7-2.52,1.67-3.43,2.91-.91,1.24-1.58,2.72-2,4.44-.42,1.73-.63,3.64-.63,5.74s.21,4.01.63,5.74c.42,1.73,1.07,3.22,1.96,4.48.89,1.26,2.03,2.24,3.43,2.94,1.4.7,3.08,1.05,5.04,1.05Z"/>
    </g>
  </g>
</svg>