<?xml version="1.0" encoding="UTF-8"?>
<svg id="Layer_1" xmlns="http://www.w3.org/2000/svg" version="1.1" viewBox="0 0 512 512">
  <!-- Generator: Adobe Illustrator 29.5.1, SVG Export Plug-In . SVG Version: 2.1.0 Build 141)  -->
  <defs>
    <style>
      .st0 {
        fill: #fff;
      }
    </style>
  </defs>
  <g>
    <path class="st0" d="M217.2,470.2c-35.7,0-79.6-21.9-114.5-57.1-32.2-32.5-50.6-69.5-50.3-101.5.1-13.4,3.7-27,9.7-37.5,7-12.1,16.6-18.7,27.2-18.7s14,2.8,20.9,8.4v-71.4h115.9l-13.3-17.5-.2-.5c-13.5-30.2-12.8-58.3,2-81.2,20.3-31.3,66.9-51.6,118.8-51.6s33.1,2.3,47.4,6.6c42.8,12.9,73.6,44.1,78.4,79.5,2.3,17.4,0,50.5-41.9,77.8v217.8h-149.3c2.4,6.7,2,13.6-1,20.2-7,15-26.2,24.7-40.8,26.2-2.9.3-5.8.4-8.8.4h0ZM88.3,272.9c-.2,0-.3,0-.4,0-14.1,3.9-18.1,36.9-16.2,52.8,2.8,24,23,55.5,52.5,82.2,30.7,27.7,64.7,44.3,91.2,44.3,5.5,0,10.6-.7,15.4-2.1,8.4-2.4,18.1-8.8,20-15.2.9-3,0-5.8-2.6-8.9-4.9-5.7-28-20.1-34.9-21-.2,0-.4,0-.7,0-2.9,0-6.2,2.5-10,5.3-5.7,4.3-12.2,9.1-21.4,9.4-.3,0-.7,0-1,0-16.1,0-32.9-12.5-41.4-20-12.5-10.9-23.4-24.6-28.4-35.7-8.5-18.7-2.5-29.3,2.8-38.6,2.7-4.8,5.3-9.4,6.1-15.1.6-3.9-4.2-14.1-13.1-24.4-7.9-9.1-14.7-13.2-17.7-13.2ZM381.2,406.3l-98.1-89-20.4,18.5-20.4-18.5-83.3,76.3c5.3,3.4,17.2,8.4,21.4,8.4h0c4.8-.3,7.9-2.8,11.8-5.9,4.8-3.9,10.8-8.7,20.8-8.7s3.7.2,5.7.5c6.4,1,16.6,7.4,27.4,14.4,2.2,1.4,5.1,3.3,6.4,4h128.7ZM398.2,394.6v-172.1l-99.3,82,99.3,90.1ZM128.1,223.3c.2,7.4-.4,15.3-.9,23-.9,13.3-1.8,27,.9,37.5.7,2.7,2.4,5.6,4.3,8.6,2.8,4.7,5.8,9.5,6,15.4.3,6.4-2.9,12.3-6,17.9-2.1,3.9-4.3,7.8-4.9,11.4-2.8,16.8,3.2,31.2,17.3,41.7l81.6-74.3-98.4-81.2ZM262.8,310.1l100.7-82c-11.1,2.5-22.6,3.9-33,3.9-1,0-1.9,0-2.8,0-6.8-.2-16.1-2.2-25-4.1-8.1-1.7-15.7-3.4-20-3.4s-.5,0-.8,0c-5,.3-23.7,9.7-37.3,16.5-9.7,4.9-18.9,9.4-24.2,11.4-.3.1-.7.3-1,.4-1.7.7-3.7,1.5-6.3,1.5s-1.5,0-2.3-.2l-6-1.2,19.8-43.1-78,2.2,116.4,98.1ZM327.2,58.8c-2.9,0-5.7,0-8.4.3-21.8,1.6-43.6,8.6-61.4,19.8-17.9,11.2-30.5,25.8-35.5,41.2-5.3,16.3-4.8,41.5,27.8,69.1l2.7,2.3-13.6,32.9c4.2-2,9.2-4.4,13.4-6.5,15.5-7.7,23.3-11.4,26.9-11.9.5,0,1.1-.1,1.7-.1,4.2,0,11.1,1.8,18.5,3.7,6,1.5,12.2,3.1,15.8,3.4,3.6.3,7.4.4,11.2.4,48.8,0,83.9-19.9,99.2-37,12.2-13.7,17.4-29.9,15.4-48.2-5.2-47.3-71-69.4-113.8-69.4Z"/>
    <path class="st0" d="M333.3,43.8c16.5,0,32.7,2.2,46.8,6.5,42.1,12.7,72.3,43.2,77,77.8,2.3,17.1-.1,49.7-41.9,76.5v216.9h-150.3c3.3,7.1,3.4,14.4.2,21.4-6.7,14.3-25.2,23.6-39.2,25-2.8.3-5.7.4-8.6.4h0c-35.2,0-78.6-21.7-113.1-56.5-31.9-32.2-50-68.6-49.7-100.1.1-13.1,3.6-26.3,9.4-36.5,6.6-11.4,15.7-17.7,25.5-17.7s15.3,3.7,22.9,10.9v-73.8h117.9l-15.6-20.5v-.3c-13.4-29.6-12.7-57,1.8-79.3,19.9-30.8,65.9-50.7,117.1-50.7M235.1,228.3c4.8-2.1,12.2-5.8,18.1-8.7,14-7,22.8-11.2,26.3-11.7.4,0,.9,0,1.4,0,4,0,10.8,1.7,18,3.6,6.1,1.6,12.4,3.2,16.2,3.5,3.7.3,7.5.5,11.4.5,49.4,0,85.1-20.3,100.7-37.6,12.6-14.1,18-30.8,15.9-49.8-5.4-48.5-72.2-71.2-115.8-71.2s-5.8,0-8.5.3c-22.1,1.6-44.2,8.7-62.3,20.1-18.3,11.4-31.2,26.5-36.3,42.3-5.5,16.9-5,42.9,28.4,71.3l1.6,1.3-15,36.2M227.6,207.8l-86.5,2.4,121.7,102.5,109-88.8c-13.5,3.9-28.3,6.1-41.4,6.1h0c-.9,0-1.9,0-2.8,0-6.6-.2-15.8-2.1-24.7-4-8.2-1.8-15.9-3.4-20.4-3.4s-.6,0-.9,0c-5.4.4-23.5,9.4-38.1,16.7-9.7,4.8-18.9,9.4-24,11.3-.4.1-.7.3-1.1.4-1.6.6-3.3,1.3-5.5,1.3s-1.3,0-1.9-.2l-3.5-.7,20-43.7M400.2,399.1v-180.9l-104.3,86.1,104.3,94.7M145.1,381.3l84.5-76.9-103.6-85.5c.5,8.6,0,18-.7,27.2-.9,13.5-1.8,27.4,1,38.1.8,3,2.6,6,4.5,9.2,2.7,4.5,5.5,9.1,5.8,14.5.2,5.8-2.8,11.5-5.8,16.9-2.2,4-4.4,8.1-5.1,12-3.1,18.2,3.7,33.6,19.5,44.6M215.3,454.2c5.6,0,11-.7,15.9-2.2,8.7-2.6,19.2-9.2,21.4-16.6,1.1-3.6.1-7.1-3-10.8-5.2-6.1-28.8-20.7-36.2-21.7-.3,0-.6,0-.9,0-3.5,0-7.1,2.7-11.2,5.7-5.5,4.1-11.7,8.7-20.3,9-.3,0-.7,0-1,0-15.5,0-31.8-12.2-40.1-19.5-12.3-10.8-23-24.2-27.9-35-8-17.8-2.6-27.4,2.7-36.8,2.8-5,5.5-9.7,6.3-15.8.7-5.2-5-16.1-13.5-26-7.3-8.4-14.9-13.9-19.2-13.9s-.7,0-1,.1c-15.4,4.3-19.7,38.1-17.7,55,2.9,24.4,23.3,56.4,53.2,83.4,31,28,65.6,44.8,92.5,44.8M262.7,333.1l-20.4-18.5-86.4,79.1c4,3.6,19.3,10.2,24.5,10.2h.1c5.5-.3,9-3.1,13-6.4,4.8-3.9,10.2-8.2,19.6-8.2s3.5.1,5.4.4c6,.9,16,7.2,26.6,14.1,2.8,1.8,5.9,3.8,6.9,4.3h134.4l-103.2-93.7-20.4,18.5M333.3,39.8c-52.5,0-99.8,20.6-120.5,52.5-15.2,23.5-16,52.3-2.2,83.1v.3c.1,0,.3.4.3.4l.3.4,10.7,14.1h-113.8v69.4c-6.2-4.3-12.5-6.4-18.9-6.4-11.3,0-21.6,7-28.9,19.7-6.2,10.7-9.8,24.7-10,38.4-.3,32.5,18.2,70,50.9,102.9,35.3,35.6,79.7,57.7,116,57.7s6.1-.2,9-.5c15.1-1.6,35.1-11.7,42.4-27.3,2.9-6.2,3.5-12.7,1.9-19.1h148.6v-218.7c41.9-27.8,44.2-61.4,41.8-79.2-4.9-36.2-36.2-68-79.8-81.1-14.4-4.3-31-6.6-47.9-6.6h0ZM242.7,220.3l11.1-26.7,1.1-2.7-2.2-1.9-1.6-1.3c-17.5-14.8-36.5-38.5-27.2-67,4.9-15,17.2-29.2,34.6-40.2,17.6-11,39-17.9,60.5-19.5,2.6-.2,5.4-.3,8.2-.3,23.1,0,50,6.5,70.4,16.9,17.3,8.9,38.6,24.9,41.4,50.7,2,17.8-3,33.5-14.9,46.7-15,16.8-49.6,36.3-97.7,36.3s-7.5-.1-11.1-.4c-3.5-.3-9.6-1.9-15.5-3.4-7.8-2-14.5-3.7-19-3.7s-1.3,0-1.9.1c-4,.5-11.5,4.1-27.6,12.1-2.7,1.3-5.7,2.8-8.7,4.3h0ZM151.7,213.9l69.6-1.9-17.4,37.9-2.1,4.6,5,1,3.5.7c.9.2,1.8.3,2.6.3,2.9,0,5.3-.9,7-1.6.3-.1.6-.3,1-.4,5.4-2,14.6-6.6,24.4-11.5,12-6,32-15.9,36.6-16.3.2,0,.4,0,.7,0,4.1,0,11.9,1.7,19.6,3.3,9.1,2,18.5,4,25.4,4.1,1,0,1.9,0,2.9,0,8.1,0,16.8-.8,25.5-2.3l-93.1,75.8-111.1-93.6h0ZM301.9,304.5l94.2-77.8v163.3l-94.2-85.6h0ZM144.8,376.2c-12.8-10-17.9-23-15.2-38.8.5-3.2,2.6-7,4.7-10.7,3.1-5.6,6.6-12,6.3-19-.3-6.4-3.5-11.7-6.3-16.4-1.8-2.9-3.4-5.6-4.1-8.1-2.6-10.1-1.7-23.7-.9-36.8.4-6.3.8-12.6.9-18.9l93.3,77-78.7,71.6h0ZM215.3,450.2c-25.9,0-59.5-16.4-89.8-43.7-29.2-26.4-49.1-57.4-51.9-80.9-1.1-9-.2-21.1,2.2-30.8,2.8-11.1,7.3-18.3,12.4-19.8,2.1,0,8.3,3.5,16.2,12.5,8.9,10.2,13,19.8,12.6,22.8-.8,5.4-3.1,9.6-5.9,14.4-5.5,9.7-11.7,20.7-2.9,40.4,5.1,11.3,16.2,25.2,28.9,36.4,8.8,7.7,26,20.5,42.7,20.5s.7,0,1.1,0c9.9-.3,16.9-5.6,22.6-9.8,3.4-2.5,6.6-5,8.8-5s.3,0,.4,0c6,.8,28.6,14.4,33.6,20.3,2.8,3.3,2.6,5.5,2.2,7-1.5,5.1-9.9,11.3-18.7,13.9-4.6,1.3-9.5,2-14.8,2h0ZM262.7,338.5l2.7-2.4,17.8-16.1,92.9,84.3h-123c-1.4-.8-4-2.5-5.8-3.7-11.4-7.4-21.4-13.6-28.2-14.7-2.1-.3-4.1-.5-6-.5-10.7,0-17,5-22.1,9.1-3.8,3-6.5,5.2-10.7,5.5h0c-3.1,0-12.4-3.7-18-6.7l80-73.2,17.7,16.1,2.7,2.4h0Z"/>
  </g>
  <g>
    <path class="st0" d="M217.2,467.4c-35,0-78.1-21.6-112.5-56.3-31.7-32-49.7-68.3-49.5-99.5.1-12.9,3.5-26.1,9.3-36.1,6.5-11.1,15.2-17.3,24.7-17.3s15.8,4,23.7,12v-74.9h118.8l-16.6-21.7v-.2c-13.2-29.3-12.6-56.5,1.7-78.5,19.8-30.5,65.5-50.3,116.4-50.3s32.5,2.2,46.5,6.4c41.8,12.6,71.7,42.8,76.4,77.1,3.9,29.2-10.9,56.1-41.9,75.9v216.5h-150.8c3.8,7.2,4.1,14.7.8,21.9-3.7,8-10.9,13.6-16.2,16.8-6.9,4.2-15,7-22.3,7.8-2.8.3-5.6.4-8.5.4h0ZM88.3,270.1c-.4,0-.8,0-1.2.1-17.2,4.8-20,41.4-18.3,55.9,2.9,24.6,23.4,56.8,53.4,84,31.2,28.2,66,45,93.1,45s11.2-.7,16.2-2.2c9.2-2.7,19.7-9.4,22-17.1,1.2-3.9,0-7.7-3.1-11.5-5.3-6.1-29.2-21-36.7-21.9-.3,0-.7,0-1,0-3.8,0-7.5,2.7-11.7,5.9-5.4,4-11.5,8.6-19.8,8.9-.3,0-.6,0-1,0-15.2,0-31.3-12.1-39.6-19.3-12.2-10.7-22.9-24-27.7-34.7-7.9-17.4-2.5-26.9,2.7-36,2.7-4.8,5.6-9.8,6.4-16.1.8-5.4-5-16.6-13.7-26.6-7.5-8.6-15.3-14.2-19.9-14.2ZM388.5,409.1l-105.4-95.6-20.4,18.5-20.4-18.5-87.6,80.2c3.2,3.6,20,11.1,25.7,11.1s.1,0,.2,0c5.7-.3,9.5-3.3,13.5-6.5,4.7-3.8,10-8,19-8s3.4.1,5.2.4c6.3,1,17.8,8.5,26.3,14,2.9,1.9,6.2,4,7.2,4.5h136.7ZM401,401v-184.5l-106.5,87.9,106.5,96.6ZM125,217c.8,9.1.1,19.2-.5,29.1-.9,13.5-1.8,27.5,1,38.4.8,3.2,2.7,6.2,4.6,9.4,2.7,4.4,5.4,8.9,5.6,14.1.2,5.6-2.8,11.1-5.7,16.4-2.2,4.1-4.5,8.3-5.2,12.2-3.1,18.8,3.9,34.6,20.3,45.8l85.7-78-105.9-87.4ZM262.7,313.8l112-91.2v-.4c-14.3,4.5-30.3,7-44.3,7h0c-.9,0-1.9,0-2.8,0-6.5-.2-15.7-2.1-24.5-4-8.2-1.8-16-3.4-20.6-3.4s-.7,0-1,0c-5.5.4-23.8,9.5-38.4,16.8-9.7,4.8-18.8,9.4-23.9,11.3-.4.1-.7.3-1.1.4-1.6.6-3.2,1.3-5.2,1.3s-1.2,0-1.7-.2l-2.5-.5,20.2-44-90,2.5,123.9,104.4ZM327.2,56c-2.9,0-5.8.1-8.6.3-22.2,1.6-44.5,8.8-62.7,20.2-18.4,11.5-31.5,26.7-36.7,42.8-8,24.6,1.9,49.5,28.7,72.2l1.1.9-15.5,37.5c4.6-1.9,13.3-6.1,20-9.5,13.6-6.7,22.7-11.1,26.1-11.6.4,0,.8,0,1.3,0,3.9,0,10.6,1.7,17.8,3.6,6.1,1.6,12.4,3.2,16.3,3.5,3.7.3,7.5.5,11.5.5,49.7,0,85.6-20.4,101.3-37.9,12.8-14.3,18.2-31.3,16.1-50.4-3.1-27.6-25.1-44.7-43.1-54.1-21.3-11.2-48.8-17.8-73.5-17.8Z"/>
    <path class="st0" d="M333.3,46.6c16.1,0,31.8,2.1,46,6.3,75.7,22.7,107.9,103.1,33.1,150v215.6h-152.4c16,23.4-12.9,44.2-34.4,46.4-2.7.3-5.5.4-8.3.4-70,0-160.6-85.1-160-153.8.2-25.1,13.2-51.4,32.1-51.4s16.5,4.4,25.7,15.1v-78.1h120.8l-18.9-24.8c-36.9-82.4,43.1-126,116.4-126M230.6,232.8c4.7,0,42.7-21.2,49.2-22,.3,0,.7,0,1,0,6.9,0,25.4,6.4,33.9,7.1,3.7.3,7.6.5,11.6.5,53.6,0,126.3-28,119.4-90.6-5.5-50.1-72.8-73.7-118.6-73.7s-5.9.1-8.7.3c-76.4,5.5-146.9,75.1-71.8,138.6l-16.5,39.8c0,0,.2.1.4.1M232,204.8l-98.5,2.8,129.1,108.8,114.3-93-.9-3.7c-14,4.7-30.6,7.6-45.7,7.6s-1.8,0-2.7,0c-12.3-.3-35.3-7.5-45.1-7.5-.4,0-.8,0-1.1,0-9.6.7-49.8,23.2-62.9,28.2-1.9.7-3.6,1.6-5.5,1.6s-.9,0-1.3-.1l20.4-44.6M403,405.5v-193.3l-111.5,92.1,111.5,101.2M145.3,384.9l88.6-80.6-111.5-92c3.5,21.7-4.3,51.9,1.1,72.7,2.1,7.9,9.8,14.8,10.2,23,.4,9.2-9.2,18.7-10.8,28.3-3.5,20.9,5.1,37.4,22.5,48.7M215.3,457.1c5.8,0,11.4-.7,16.7-2.3,13.4-3.9,32.2-17.3,19.8-31.9-5.5-6.4-29.7-21.5-37.9-22.6-.4,0-.9,0-1.3,0-9.8,0-17.4,14.3-31.6,14.8-.3,0-.6,0-.9,0-23.9,0-56.3-32.5-65.4-52.8-11.6-25.6,6.6-32.3,9.3-51,1.7-12.3-23.1-43.1-35.6-43.1-.6,0-1.2,0-1.7.2-18.4,5.1-21.6,42.6-19.8,58,6.2,53,88.5,130.7,148.5,130.7M262.7,329.3l-20.4-18.5-90,82.5c1.1,5,22.2,13.6,28.2,13.6s.2,0,.3,0c13.5-.8,16.6-14.6,32.4-14.6s3.2.1,4.9.4c9,1.4,31.6,18.5,33.6,18.5h142.2l-110.6-100.3-20.4,18.5M333.3,42.6v4-4c-23.6,0-47.8,4.5-68.1,12.8-22.3,9.1-39.7,22.4-50.1,38.4-7.1,10.9-11,23.1-11.5,36.1-.6,13.9,2.6,28.9,9.6,44.4l.2.4.3.4,14,18.3h-116.7v72.3c-7.2-6.2-14.5-9.4-21.7-9.4-10.2,0-19.6,6.5-26.5,18.3-6,10.3-9.5,23.8-9.6,37-.2,16.4,4.5,33.9,13.9,52.2,8.6,16.7,21.1,33.6,36.1,48.7,16.5,16.6,35.4,30.7,54.8,40.7,20.6,10.6,41,16.2,59.2,16.2s5.9-.1,8.7-.4c14.3-1.5,33.3-11,40.1-25.7,3.2-6.8,3.3-13.9.6-20.7h149.7v-217.4c15.6-10.1,27.2-22.1,34.3-35.6,6.9-13,9.5-27.4,7.6-41.6-4.7-35.1-35.3-66-77.8-78.8-14.2-4.3-30.5-6.5-47.1-6.5h0ZM237.3,226l13.1-31.6,1.1-2.7-2.2-1.9c-26.1-22.1-35.8-46.3-28.1-70,5.1-15.6,17.8-30.4,35.8-41.7,17.9-11.2,39.9-18.3,61.8-19.9,2.7-.2,5.5-.3,8.4-.3,24.4,0,51.5,6.6,72.5,17.6,17.6,9.2,39.1,25.8,42.1,52.5,2.1,18.6-3.2,35-15.6,48.9-10.5,11.7-26.2,21.4-45.3,28.1-17.1,5.9-36.4,9.2-54.5,9.2s-7.7-.2-11.3-.5c-3.7-.3-9.9-1.9-16-3.5-7.3-1.9-14.1-3.6-18.2-3.6s-1.1,0-1.6,0c-3.8.5-12.6,4.8-26.7,11.8-4.9,2.4-10.8,5.3-15.4,7.5h0ZM144.2,211.3l81.6-2.3-17.8,38.7-2.1,4.6,5,1c.7.1,1.4.2,2.1.2,2.4,0,4.3-.8,5.9-1.4.3-.1.7-.3,1-.4,5.2-2,14.4-6.5,24.1-11.4,13.7-6.8,32.5-16.2,37.6-16.6.3,0,.5,0,.9,0,4.4,0,12.4,1.7,20.2,3.4,9,1.9,18.2,3.9,24.9,4.1.9,0,1.9,0,2.8,0,11.5,0,24.3-1.7,36.4-4.7l-104,84.7-118.6-99.9h0ZM297.6,304.4l101.4-83.7v175.8l-101.4-92.1h0ZM145,379.8c-6.9-5-12-10.8-15.1-17.3-3.6-7.6-4.7-16.2-3.1-25.6.6-3.7,2.7-7.5,5-11.6,3-5.6,6.2-11.3,5.9-17.5-.2-5.7-3.1-10.4-5.9-15-1.9-3.1-3.6-6-4.4-8.8-2.7-10.6-1.8-24.4-.9-37.8.6-8.3,1.1-16.8.8-24.7l100.5,83-82.8,75.4h0ZM215.3,453.1c-26.6,0-60.9-16.6-91.7-44.5-29.7-26.8-49.9-58.5-52.8-82.7-.9-7.4-.5-20.1,2.2-31.5,1.7-7.3,6-19.8,14.6-22.2.2,0,.4,0,.6,0,3.3,0,10.3,4.2,18.4,13.5,7,8.1,14,19.6,13.3,25-.8,5.9-3.4,10.5-6.2,15.4-5.2,9.1-11,19.5-2.7,37.8,5,11,15.8,24.5,28.2,35.4,8.5,7.4,25,19.8,40.9,19.8s.7,0,1,0c9-.3,15.6-5.3,21-9.3,4-3,7.4-5.5,10.5-5.5s.5,0,.8,0c7,.9,30.5,15.5,35.4,21.3,2.8,3.3,3.7,6.4,2.7,9.7-2.1,6.9-12.2,13.3-20.6,15.8-4.8,1.4-10.1,2.1-15.6,2.1h0ZM262.7,334.7l2.7-2.4,17.8-16.1,100.2,90.9h-131.1c-1.2-.6-4-2.5-6.6-4.1-10.7-7-20.9-13.3-27.1-14.3-1.9-.3-3.8-.5-5.5-.5-9.7,0-15.3,4.5-20.3,8.5-3.9,3.1-7.2,5.8-12.3,6.1h0c-1.8,0-7.3-1.6-13.3-4.2-4.5-2-7.6-3.8-9.3-5l84.6-77.4,17.7,16.1,2.7,2.4h0Z"/>
  </g>
  <g>
    <path class="st0" d="M279.1,150.1c-9.2,0-16.7-7.5-16.7-16.7s7.5-16.7,16.7-16.7,16.7,7.5,16.7,16.7-7.5,16.7-16.7,16.7Z"/>
    <path class="st0" d="M279.1,118.8c8.1,0,14.7,6.6,14.7,14.7s-6.6,14.7-14.7,14.7-14.7-6.6-14.7-14.7,6.6-14.7,14.7-14.7M279.1,114.8c-10.3,0-18.7,8.4-18.7,18.7s8.4,18.7,18.7,18.7,18.7-8.4,18.7-18.7-8.4-18.7-18.7-18.7h0Z"/>
  </g>
  <g>
    <path class="st0" d="M333.3,150.1c-9.2,0-16.7-7.5-16.7-16.7s7.5-16.7,16.7-16.7,16.7,7.5,16.7,16.7-7.5,16.7-16.7,16.7Z"/>
    <path class="st0" d="M333.3,118.8c8.1,0,14.7,6.6,14.7,14.7s-6.6,14.7-14.7,14.7-14.7-6.6-14.7-14.7,6.6-14.7,14.7-14.7M333.3,114.8c-10.3,0-18.7,8.4-18.7,18.7s8.4,18.7,18.7,18.7,18.7-8.4,18.7-18.7-8.4-18.7-18.7-18.7h0Z"/>
  </g>
  <g>
    <path class="st0" d="M384.5,150.1c-9.2,0-16.7-7.5-16.7-16.7s7.5-16.7,16.7-16.7,16.7,7.5,16.7,16.7-7.5,16.7-16.7,16.7Z"/>
    <path class="st0" d="M384.5,118.8c8.1,0,14.7,6.6,14.7,14.7s-6.6,14.7-14.7,14.7-14.7-6.6-14.7-14.7,6.6-14.7,14.7-14.7M384.5,114.8c-10.3,0-18.7,8.4-18.7,18.7s8.4,18.7,18.7,18.7,18.7-8.4,18.7-18.7-8.4-18.7-18.7-18.7h0Z"/>
  </g>
</svg>